<?xml version="1.0" encoding="utf-8"?>
<!-- Generator: Adobe Illustrator 26.0.2, SVG Export Plug-In . SVG Version: 6.00 Build 0)  -->
<svg version="1.1" id="Layer_1" xmlns="http://www.w3.org/2000/svg" xmlns:xlink="http://www.w3.org/1999/xlink" x="0px" y="0px"
	 viewBox="0 0 438.9 539.6" style="enable-background:new 0 0 438.9 539.6;" xml:space="preserve">
<style type="text/css">
	.st0{fill:#A60063;}
	.st1{fill:#FFFFFF;}
</style>
<g>
	<path id="BG" class="st0" d="M354.1,438.9H85.4C38.2,438.9,0,400.7,0,353.4v-268C0,38.2,38.2,0,85.4,0h268
		c47.2,0,85.4,38.2,85.4,85.4v268C439.5,400.7,401.3,438.9,354.1,438.9L354.1,438.9z"/>
	<path id="Y" class="st1" d="M197.1,130.7c2.9-0.6,5.8,2.3,4.6,5.2c-2.3,10.4-5.2,20.9-7.5,31.3c-7.5,31.3-15.1,63.3-23.2,94.6
		c-2.3,8.7-5.8,16.8-9.3,25c-6.4,13.3-17.4,20.3-31.9,20.3c-19.7,0.6-45.3,1.2-57.5,1.2c-2.9,0-5.2-2.3-5.2-5.2l-1.2-25.5
		c0-2.9,1.7-5.2,4.6-5.8c3.5-0.6,21.5-1.2,33.7-1.2c4.6,0,8.1-5.2,6.4-9.9c-11.6-25-41.2-91.1-45.3-103.9c-1.2-2.9,1.2-5.8,4.1-6.4
		c9.9-1.7,25.5-3.5,40-5.8c2.9-0.6,5.2,1.2,6.4,4.1c5.2,23.2,20.9,65.6,20.9,65.6h2.3c1.2-5.8,6.4-52.2,9.3-70.2
		c0.6-4.1,2.3-5.2,5.8-5.8C168.6,136.5,182.6,133.6,197.1,130.7"/>
	<g>
		<path class="st1" d="M374.4,185.4c-6.2-24.1-21.5-39.7-45.9-45.6c-21.9-5.2-44.1-5.2-66,0.1c-24,5.8-39.2,20.9-45.4,44.7
			c-6.3,23.6-6.3,47.4,0.6,70.9c6.5,22.2,21.1,36.7,43.7,42c11.2,2.6,28.5,6,59.7,2.1c27.3-4.6,45.9-19.3,53.1-46.6
			C380.1,230.6,380.1,207.9,374.4,185.4L374.4,185.4z"/>
		<path class="st0" d="M281.8,265c-1.8,0-3.5-0.7-4.9-2c-2.4-2.3-2.7-6.2-0.7-8.9l17.2-24l-28.5-2.8c-3.1-0.3-5.7-2.3-6.7-5.3
			c-1-3-0.2-6.2,2.2-8.3l44.4-39.8c1.2-1.2,2.9-1.8,4.7-1.8c1.8,0,3.6,0.7,4.9,2.1c2.3,2.3,2.7,6.1,0.7,8.9l-17.2,24l28.5,2.7
			c3.1,0.3,5.7,2.3,6.7,5.3c1,3,0.2,6.2-2.2,8.3l-44.4,39.8C285.2,264.4,283.5,265,281.8,265L281.8,265z"/>
	</g>
	<g>
		<path d="M147.2,479.6l-14.7,60H112l-8.2-36.8l-8.4,36.8H74.9l-14.5-60h18l7,41l9.4-41h18.3l9.2,40.7l7-40.7H147.2L147.2,479.6z"/>
		<path d="M185.4,529.8h-21.3l-3.2,9.8h-17.5l21.9-60h19.2l21.8,60h-17.6L185.4,529.8L185.4,529.8z M181.3,517l-6.5-19.4l-6.4,19.4
			H181.3z"/>
		<path d="M228.4,526.8H247v12.8h-35.3v-60h16.7V526.8L228.4,526.8z"/>
		<path d="M270.2,526.8h18.6v12.8h-35.3v-60h16.7V526.8L270.2,526.8z"/>
		<path d="M311.9,493v9.8h19.1v12.7h-19.1v10.8h21.7v13.4h-38.4v-60h38.4V493L311.9,493L311.9,493z"/>
		<path d="M387.1,479.6v13.3h-16v46.7h-16.7v-46.7h-15.8v-13.3H387.1L387.1,479.6z"/>
	</g>
</g>
</svg>
